<svg xmlns="http://www.w3.org/2000/svg" viewBox="0 0 64 64">
  <defs>
    <linearGradient id="pl" x1="0" y1="0" x2="1" y2="1">
      <stop offset="0%" stop-color="#1c2536"/>
      <stop offset="100%" stop-color="#090e18"/>
    </linearGradient>
    <radialGradient id="gl" cx="50%" cy="35%" r="75%">
      <stop offset="0%" stop-color="#ff7b59" stop-opacity="0.45"/>
      <stop offset="100%" stop-color="#ff7b59" stop-opacity="0"/>
    </radialGradient>
    <linearGradient id="gem" x1="0" y1="0" x2="0" y2="1">
      <stop offset="0%" stop-color="#ffd0b8"/>
      <stop offset="45%" stop-color="#ff7b59"/>
      <stop offset="100%" stop-color="#b3341a"/>
    </linearGradient>
  </defs>
  <rect width="64" height="64" rx="16" fill="url(#pl)"/>
  <rect width="64" height="64" rx="16" fill="url(#gl)"/>
  <rect width="64" height="64" rx="16" fill="none" stroke="#e55934" stroke-opacity="0.35" stroke-width="1.5"/>
  <path d="M18 36 L26 24 L38 24 L46 36 L32 54 Z" fill="url(#gem)"/>
  <path d="M26 24 L32 30 L38 24 L32 20 Z" fill="#ffb899" opacity="0.9"/>
  <path d="M32 30 L32 54 L46 36 L38 24 Z" fill="#8a2610" opacity="0.35"/>
  <path d="M26 24 L18 36 L32 54 L32 30 Z" fill="#ffffff" opacity="0.25"/>
  <path d="M32 20 L38 24 L32 30 Z" fill="#ffffff" opacity="0.4"/>
</svg>