<svg xmlns="http://www.w3.org/2000/svg" viewBox="0 0 64 64">
  <defs>
    <linearGradient id="pl" x1="0" y1="0" x2="1" y2="1">
      <stop offset="0%" stop-color="#12251c"/>
      <stop offset="100%" stop-color="#07120c"/>
    </linearGradient>
    <radialGradient id="gl" cx="50%" cy="35%" r="75%">
      <stop offset="0%" stop-color="#4ade80" stop-opacity="0.5"/>
      <stop offset="100%" stop-color="#4ade80" stop-opacity="0"/>
    </radialGradient>
  </defs>
  <rect width="64" height="64" rx="16" fill="url(#pl)"/>
  <rect width="64" height="64" rx="16" fill="url(#gl)"/>
  <rect width="64" height="64" rx="16" fill="none" stroke="#22c55e" stroke-opacity="0.4" stroke-width="1.5"/>
  <circle cx="20" cy="26" r="5" fill="#86efac"/>
  <circle cx="20" cy="26" r="2" fill="#052e16"/>
  <path d="M20 31 L20 44 M20 44 L14 38 M20 44 L26 38" stroke="#4ade80" stroke-width="2" stroke-linecap="round" fill="none"/>
  <circle cx="42" cy="38" r="4" fill="#4ade80"/>
  <circle cx="42" cy="38" r="1.6" fill="#052e16"/>
  <path d="M42 42 L42 50 M42 50 L38 46 M42 50 L46 46" stroke="#4ade80" stroke-width="1.8" stroke-linecap="round" fill="none"/>
  <circle cx="36" cy="16" r="3" fill="#86efac" opacity="0.8"/>
  <circle cx="28" cy="48" r="2.5" fill="#4ade80" opacity="0.6"/>
  <circle cx="50" cy="22" r="2" fill="#86efac" opacity="0.5"/>
</svg>